# xmcd
#
# Track frame offsets:
#	150
#	46759
#	111145
#	171821
#	213177
#	242476
#	297127
#
# Disc length: 4274 seconds
#
# Revision: 0
# Processed by: cddbd v1.5.1PL2 Copyright (c) Steve Scherf et al.
# Submitted via: EasyCDDAExtractor 9.0.0.1
#
DISCID=5610b007
DTITLE=Phil Lesh and Friends - Tower Theatre 2-25-2006 (disk 1)
DYEAR=2006
DGENRE=Rock and Roll
TTITLE0=Jam
TTITLE1=Scarlet Begonias'
TTITLE2=Cats Under the Stars
TTITLE3=Cold Roses
TTITLE4=Sitting on Top of the World
TTITLE5=Good Lovin'
TTITLE6=Golden Road
EXTD=
EXTT0=
EXTT1=
EXTT2=
EXTT3=
EXTT4=
EXTT5=
EXTT6=
PLAYORDER=
